/* XPM */
static char *_613fb3410a145f0a7ba2042c072b32dbvGLB21nKj2sT4B7[] = {
/* columns rows colors chars-per-pixel */
"65 65 256 2 ",
"   c #FF00D0",
".  c #FF00D1",
"X  c #DC03B4",
"o  c #FF00D2",
"O  c #FF00D3",
"+  c #EC00C1",
"@  c #C1009E",
"#  c #B00090",
"$  c #AE008E",
"%  c #B50094",
"&  c #D100AA",
"*  c #F700C9",
"=  c #C500A0",
"-  c #3F0034",
";  c #0C000A",
":  c #050004",
">  c #040003",
",  c #1A0015",
"<  c #70005B",
"1  c #E500BB",
"2  c #C3009F",
"3  c #3B0030",
"4  c #060005",
"5  c black",
"6  c #140010",
"7  c #6C0058",
"8  c #E500BA",
"9  c #3B0031",
"0  c #070005",
"q  c #0B0009",
"w  c #2C0024",
"e  c #35002B",
"r  c #37002C",
"t  c #36002C",
"y  c #47003A",
"u  c #8C0073",
"i  c #EA00BF",
"p  c #2A0022",
"a  c #A20084",
"s  c #C400A0",
"d  c #C800A4",
"f  c #C800A3",
"g  c #CD00A7",
"h  c #E000B7",
"j  c #F900CB",
"k  c #CF00A9",
"l  c #FB00CD",
"z  c #CE00A8",
"x  c #FD00CE",
"c  c #270020",
"v  c #97007B",
"b  c #B70095",
"n  c #BB0099",
"m  c #BB0098",
"M  c #BE009B",
"N  c #DF00B6",
"B  c #FE00CF",
"V  c #020002",
"C  c #080006",
"Z  c #090008",
"A  c #0A0008",
"S  c #090007",
"D  c #150011",
"F  c #8C0072",
"G  c #FA00CC",
"H  c #86006E",
"J  c #F900CC",
"K  c #280021",
"L  c #310028",
"P  c #320029",
"I  c #9F0082",
"U  c #FB00CC",
"Y  c #21001B",
"T  c #7F0068",
"R  c #99007D",
"E  c #9D0080",
"W  c #9C0080",
"Q  c #A10083",
"!  c #33002A",
"~  c #C700A2",
"^  c #F100C4",
"/  c #F600C9",
"(  c #300027",
")  c #B90097",
"_  c #E700BC",
"`  c #F500C8",
"'  c #13000F",
"]  c #48003B",
"[  c #570047",
"{  c #590049",
"}  c #580048",
"|  c #630051",
" . c #C2009E",
".. c #FC00CE",
"X. c #010001",
"o. c #11000E",
"O. c #39002F",
"+. c #0E000B",
"@. c #CD00A8",
"#. c #5C004B",
"$. c #2B0023",
"%. c #2A0023",
"&. c #39002E",
"*. c #B10091",
"=. c #EC00C0",
"-. c #E600BC",
";. c #E800BD",
":. c #DD03B5",
">. c #D504AF",
",. c #D604B0",
"<. c #B80798",
"1. c white",
"2. c black",
"3. c black",
"4. c black",
"5. c black",
"6. c black",
"7. c black",
"8. c black",
"9. c black",
"0. c black",
"q. c black",
"w. c black",
"e. c black",
"r. c black",
"t. c black",
"y. c black",
"u. c black",
"i. c black",
"p. c black",
"a. c black",
"s. c black",
"d. c black",
"f. c black",
"g. c black",
"h. c black",
"j. c black",
"k. c black",
"l. c black",
"z. c black",
"x. c black",
"c. c black",
"v. c black",
"b. c black",
"n. c black",
"m. c black",
"M. c black",
"N. c black",
"B. c black",
"V. c black",
"C. c black",
"Z. c black",
"A. c black",
"S. c black",
"D. c black",
"F. c black",
"G. c black",
"H. c black",
"J. c black",
"K. c black",
"L. c black",
"P. c black",
"I. c black",
"U. c black",
"Y. c black",
"T. c black",
"R. c black",
"E. c black",
"W. c black",
"Q. c black",
"!. c black",
"~. c black",
"^. c black",
"/. c black",
"(. c black",
"). c black",
"_. c black",
"`. c black",
"'. c black",
"]. c black",
"[. c black",
"{. c black",
"}. c black",
"|. c black",
" X c black",
".X c black",
"XX c black",
"oX c black",
"OX c black",
"+X c black",
"@X c black",
"#X c black",
"$X c black",
"%X c black",
"&X c black",
"*X c black",
"=X c black",
"-X c black",
";X c black",
":X c black",
">X c black",
",X c black",
"<X c black",
"1X c black",
"2X c black",
"3X c black",
"4X c black",
"5X c black",
"6X c black",
"7X c black",
"8X c black",
"9X c black",
"0X c black",
"qX c black",
"wX c black",
"eX c black",
"rX c black",
"tX c black",
"yX c black",
"uX c black",
"iX c black",
"pX c black",
"aX c black",
"sX c black",
"dX c black",
"fX c black",
"gX c black",
"hX c black",
"jX c black",
"kX c black",
"lX c black",
"zX c black",
"xX c black",
"cX c black",
"vX c black",
"bX c black",
"nX c black",
"mX c black",
"MX c black",
"NX c black",
"BX c black",
"VX c black",
"CX c black",
"ZX c black",
"AX c black",
"SX c black",
"DX c black",
"FX c black",
"GX c black",
"HX c black",
"JX c black",
"KX c black",
"LX c black",
"PX c black",
"IX c black",
"UX c black",
/* pixels */
"                                                                                                                              . X ",
"                                                                                                                              . X ",
"                                                                                                                              . X ",
"                                                                                                                              . X ",
"                                                                                                                              . X ",
"                                                                                                                              . X ",
"                                                                                                                              . X ",
"                                                                                                                              . X ",
"                                                                                                                              . X ",
"                                                                                                                              . X ",
"                                                                                                                              . X ",
"                                                                                                                              . X ",
"                                          . o O O O O O O O O O O O O O O O O O O O O o                                       . X ",
"                                        . + @ # $ $ $ $ $ $ $ $ $ $ $ $ $ $ $ $ $ $ % & *                                     . X ",
"                                        o = - ; : : : : : : : : : : : : : : : : : > , < 1 .                                   . X ",
"                                        o 2 3 4 5 5 5 5 5 5 5 5 5 5 5 5 5 5 5 5 5 5 6 7 8 .                                   . X ",
"                                        o 2 9 0 5 q w e r r r r r r r r r r r r r t y u i .                                   . X ",
"                                        o 2 9 0 5 p a s d f f f f f f f f f f f f f g h j                                     . X ",
"                                        o 2 9 0 5 t k l o o o o o o o o o o o o o o . .                                       . X ",
"                                        o 2 9 0 5 e z j                                                                       . X ",
"                                        o 2 9 0 5 e z j                                                                       . X ",
"                                        o 2 9 0 5 e z j                                                                       . X ",
"                                        o 2 9 0 5 e z j                                                                       . X ",
"                                        o 2 9 0 5 e z j                                                                       . X ",
"                                        o 2 9 0 5 e z j                                                                       . X ",
"                                        o 2 9 0 5 t & x O O O O O O O O O O O O O O .                                         . X ",
"                                        o 2 9 0 5 c v b n n n n n n n n n n n n m M N B                                       . X ",
"                                        o 2 9 0 5 V C Z A A A A A A A A A A A A S D F G                                       . X ",
"                                        o 2 9 0 5 5 5 5 5 5 5 5 5 5 5 5 5 5 5 5 5 S H J                                       . X ",
"                                        o 2 9 0 5 q K L P P P P P P P P P P P P L 3 I U                                       . X ",
"                                        o 2 9 0 5 Y T R E E E E E E E E E E E E W Q & x                                       . X ",
"                                        o 2 9 0 5 ! ~ ^ * / / / / / / / / / / / / * l                                         . X ",
"                                        o 2 9 0 5 e z G .                                                                     . X ",
"                                        o 2 9 0 5 e z j                                                                       . X ",
"                                        o 2 9 0 5 e z j                                                                       . X ",
"                                        o 2 9 0 5 e z j                                                                       . X ",
"                                        o 2 9 0 5 e z j                                                                       . X ",
"                                        o 2 9 0 5 e z j                                                                       . X ",
"                                        o 2 9 0 5 t k l o . . . . . . . . . . . . . . .                                       . X ",
"                                        o 2 9 0 5 ( ) h 1 1 1 1 1 1 1 1 1 1 1 1 1 1 1 _ `                                     . X ",
"                                        o 2 9 0 5 ' ] [ { { { { { { { { { { { { { { } |  ...                                  . X ",
"                                        o 2 9 0 5 5 X.X.X.X.X.X.X.X.X.X.X.X.X.X.X.X.5 o.a G                                   . X ",
"                                        o 2 O.> 5 5 5 5 5 5 5 5 5 5 5 5 5 5 5 5 5 5 5 +.Q G                                   . X ",
"                                        o @.#.L $.$.$.$.$.$.$.$.$.$.$.$.$.$.$.$.$.$.%.&.*.l                                   . X ",
"                                          j =._ -.-.-.-.-.-.-.-.-.-.-.-.-.-.-.-.-.-.-.;./                                     . X ",
"                                            . . . . . . . . . . . . . . . . . . . . . .                                       . X ",
"                                                                                                                              . X ",
"                                                                                                                              . X ",
"                                                                                                                              . X ",
"                                                                                                                              . X ",
"                                                                                                                              . X ",
"                                                                                                                              . X ",
"                                                                                                                              . X ",
"                                                                                                                              . X ",
"                                                                                                                              . X ",
"                                                                                                                              . X ",
"                                                                                                                              . X ",
"                                                                                                                              . X ",
"                                                                                                                              . X ",
"                                                                                                                              . X ",
"                                                                                                                              . X ",
"                                                                                                                              . X ",
"                                                                                                                              . X ",
". . . . . . . . . . . . . . . . . . . . . . . . . . . . . . . . . . . . . . . . . . . . . . . . . . . . . . . . . . . . . . . O :.",
">.>.>.>.>.>.>.>.>.>.>.>.>.>.>.>.>.>.>.>.>.>.>.>.>.>.>.>.>.>.>.>.>.>.>.>.>.>.>.>.>.>.>.>.>.>.>.>.>.>.>.>.>.>.>.>.>.>.>.>.>.>.>.,.<."
};
