/* XPM */
static char *e042e1104da14a3ba7b9dacf8807ccbdDI9Xm2uYVK7f42wF[] = {
/* columns rows colors chars-per-pixel */
"65 65 155 2 ",
"   c #010202",
".  c #020900",
"X  c #080B04",
"o  c #02020C",
"O  c #04080C",
"+  c #010113",
"@  c #0B0F12",
"#  c #02021B",
"$  c #070A1C",
"%  c #030125",
"&  c #0D0D25",
"*  c #02042C",
"=  c #08012B",
"-  c #0A0931",
";  c #04003B",
":  c #0A003B",
">  c #0B083D",
",  c #070043",
"<  c #090446",
"1  c #0C0843",
"2  c #0D034A",
"3  c #0F0A4C",
"4  c #060151",
"5  c #0A0353",
"6  c #0E0464",
"7  c #140A6B",
"8  c #0E0177",
"9  c #130670",
"0  c #0D0282",
"q  c #0F0588",
"w  c #130382",
"e  c #11038D",
"r  c #0F0093",
"t  c #0F009A",
"y  c #110194",
"u  c #130099",
"i  c #1302A3",
"p  c #1300A9",
"a  c #1A05AC",
"s  c #1500B3",
"d  c #1702B9",
"f  c #1700C2",
"g  c #1400CB",
"h  c #1700D4",
"j  c #1C02DA",
"k  c #2006D9",
"l  c #1700E2",
"z  c #1C01E4",
"x  c #1C08E3",
"c  c #1D03EC",
"v  c #1D02F4",
"b  c #1B01FA",
"n  c #1B00FB",
"m  c #1A01FB",
"M  c #1A00FA",
"N  c #1A00F8",
"B  c #1D00F8",
"V  c #1E01F9",
"C  c #1C02F9",
"Z  c #1F03F8",
"A  c #1D00FA",
"S  c #1D00FB",
"D  c #1E00FB",
"F  c #1F00FB",
"G  c #1D03FA",
"H  c #1C02FB",
"J  c #1F02FA",
"K  c #1C04F8",
"L  c #1E04F9",
"P  c #1E04FB",
"I  c #1800FC",
"U  c #1900FD",
"Y  c #1A00FC",
"T  c #1B00FD",
"R  c #1B02FC",
"E  c #1900FF",
"W  c #1A00FF",
"Q  c #1B00FF",
"!  c #1B01FF",
"~  c #1C00FC",
"^  c #1D00FC",
"/  c #1C01FC",
"(  c #1D00FD",
")  c #1F00FC",
"_  c #1E01FC",
"`  c #1C03FC",
"'  c #1F02FC",
"]  c #1C00FE",
"[  c #1C01FE",
"{  c #1C00FF",
"}  c #1D00FF",
"|  c #1C01FF",
" . c #1D01FF",
".. c #1E00FE",
"X. c #1F00FE",
"o. c #1E00FF",
"O. c #1F00FF",
"+. c #1E01FF",
"@. c #1F01FF",
"#. c #1D02FF",
"$. c #1C03FF",
"%. c #1E03FE",
"&. c #1E02FF",
"*. c #1F03FF",
"=. c #1F05FE",
"-. c #1F04FF",
";. c #1E00FE",
":. c #2000E2",
">. c #2306EA",
",. c #2206EE",
"<. c #2006EE",
"1. c #210AEE",
"2. c #2103F1",
"3. c #2206F1",
"4. c #2100F4",
"5. c #2005F4",
"6. c #2105F7",
"7. c #2004F6",
"8. c #2109F3",
"9. c #2308F3",
"0. c #2108F7",
"q. c #2308F7",
"w. c #2008F0",
"e. c #280EF5",
"r. c #2202F9",
"t. c #2103FB",
"y. c #2304F8",
"u. c #2206F8",
"i. c #2306F8",
"p. c #2204FA",
"a. c #2407F9",
"s. c #2000FC",
"d. c #2001FC",
"f. c #2001FD",
"g. c #2102FD",
"h. c #2000FF",
"j. c #2001FF",
"k. c #2101FF",
"l. c #2102FF",
"z. c #2103FF",
"x. c #2202FF",
"c. c #2302FF",
"v. c #2303FF",
"b. c #2401FF",
"n. c #2104FE",
"m. c #2004FF",
"M. c #2104FF",
"N. c #2304FF",
"B. c #2205FF",
"V. c #2305FF",
"C. c #2406FE",
"Z. c #2407FF",
"A. c #2507FF",
"S. c #2102FE",
"D. c #2209FA",
/* pixels */
"..................................................................................................................................",
"..................................................................................................................................",
"..................................................................................................................................",
"..................................................................................................................................",
"..................................................................................................................................",
"..................................................................................................................................",
"..................................................................................................................................",
"..................................................................................................................................",
"................................c ....,...g...c S S ......v S ....................r...S v Q v M ..................................",
"................................-.n.v p.S c c v v ..v c v S ..v ................c v Q ......n.g...................................",
"................................v S Q S v ..Q Q Q ..c ........v ....................S M Q M ..v ..................................",
"................................g.5.S ..v ....Q c Q v M v c ..v ................v v L v ..p.n.q...................................",
"................................v M M M v v v ..v c x Q Q M ..g...................v g.v ....Q v ..................................",
"................................S Q -.1.Z.z ..g.Q ........M v g.................Z.l g.c ..a.c c ..................................",
"................................v M v Q Q * o   @ w Q ..-...v c ................t + . . y g.Q ....................................",
"................................-.Q 8.q...$       $ i c ....j ..................u o +   y g.......................................",
"..................................S ....g.%     X   , 4.>...5...................p       u S ......................................",
"..................................S ....g.%     o o o w g.S Z.S ................p       u S ......................................",
"..................................S ....g.%       o   O h g.5.M ................p       u S ......................................",
"..................................S ....g.%             1 g.c Q ................p       u S ......................................",
"..................................S ....g.%     + #   o . y ....................p       u S ......................................",
"..................................S ....g.%     % y     o + k g.................p       u S ......................................",
"..................................S ....g.%     + g.2       3 z ................p       u S ......................................",
"..................................S ....g.%     # r.:.  X O   a ................p       u S ......................................",
"..................................S ....g.%     o ..Q q . o X o z v n.M L v n...p       u S ......................................",
"..................................S ....g.%     O ..v l <     o < ..v v Q D.M g.p     o u S ......................................",
"..................................S ....g.%     O ..v n.l . o O   y S ..v ..v ..p       u S ......................................",
"..................................S ....g.%     % v Q n.2.w   o   # j g...c e.Q p     o u S ......................................",
"..................................S ....g.%     + g.c v 3...-   o   5 p.Q 8.q.Q p       u S ......................................",
"..................................S ....g.%     + p.c Q ..b.g .       u g.n.M ..p       u S ......................................",
"..................................S ....g.%     + g...M ..g.c 0         z ..c Q p       u S ......................................",
"..................................S ....g.%     # ....-.v v 5...: O     4 ..L M p       u S ......................................",
"..................................S ....g.%     # S v ..S g.g...j o . o   p 5.l s       y ..5.g...................................",
"..................................S ....g.%     # S v ..S g.g...v 8   o + # l g.u       u ..g.....................................",
"..................................S ....g.%     # S v ..S ..g...n.c ;   o   6 g.p       u ....S ..................................",
"..................................S ....g.%     # S v ..S ..g.......f o o o   p d       e v ..S ..................................",
"..................................S ....g.%     # S v ..S g.g...M v g.0 o o   = r       e v ..v ..................................",
"..................................S ....g.%     # S v ..S g.g...v n.v c >       ;       u ....5...................................",
"..................................S ....g.%     # S v ..S g.g.....-.M 5.d %     o   +   i ..Q 5...................................",
"..................................S ....g.%     # S v ..S g.g.....Q 8...v 9 + X   o #   u S Q v ..................................",
"................................v p.S S Z.%     % 4.S Q 5.Q v 5...v v v g.c &     X     u ..v S ..................................",
"................................S g.Q v r.%     % b.r.....Q v ....S M v 5...s X o X     y ........................................",
"..................................v v g.Z.%   o # S g.c v Q 5.S S ..v v ..g.Q 7 + X     e v v ....................................",
"................................g.,.v ..c *     $ z ....v ......4...S v ..p.4.c +     o u ..n.5...................................",
"................................v ....v g.c b.b.M g.c v p...S v S ....S v ..S ..y.b.g.c S 5.v Q ..................................",
"................................v p.g.v Q v g.v n.p.....g.S ..g.....c S v ......S v g.v ..g.-.v ..................................",
"................................Q c n.g...5.r...c v Q v c g...3.....c S ..S v ....v g.5...v ..v ..................................",
"................................n.v ....M v S ..S Q ..v S g.....L v ....S S ..S ..v S v Q v ..Q ..................................",
"..................................................................................................................................",
"..................................................................................................................................",
"..................................................................................................................................",
"..................................................................................................................................",
"..................................................................................................................................",
"..................................................................................................................................",
"..................................................................................................................................",
"..................................................................................................................................",
"..................................................................................................................................",
"..................................................................................................................................",
"..................................................................................................................................",
"..................................................................................................................................",
"..................................................................................................................................",
"..................................................................................................................................",
"..................................................................................................................................",
"..................................................................................................................................",
".................................................................................................................................."
};
