/* XPM */
static char *_3bfd024aeee4fa98a6276859884a458TAoROensIZPAkLwt[] = {
/* columns rows colors chars-per-pixel */
"65 65 194 2 ",
"   c #020202",
".  c #0A0102",
"X  c #010A01",
"o  c #0B0C01",
"O  c #02020B",
"+  c #09010C",
"@  c #030B0A",
"#  c #0B0A0F",
"$  c #1A0200",
"%  c #100C00",
"&  c #1A0B01",
"*  c #13020E",
"=  c #1C0D09",
"-  c #031102",
";  c #1B1300",
":  c #15160E",
">  c #1F160F",
",  c #030212",
"<  c #090114",
"1  c #030915",
"2  c #080810",
"3  c #04031C",
"4  c #0A071D",
"5  c #200E0A",
"6  c #221400",
"7  c #291204",
"8  c #251A02",
"9  c #281F00",
"0  c #251D08",
"q  c #2A1A0D",
"w  c #381E0D",
"e  c #2B1015",
"r  c #201C11",
"t  c #242002",
"y  c #2C2102",
"u  c #292B03",
"i  c #332304",
"p  c #352B00",
"a  c #3F2D00",
"s  c #333202",
"d  c #3C3104",
"f  c #3C340F",
"g  c #3B3211",
"h  c #3E3816",
"j  c #0B0C21",
"k  c #4A3B00",
"l  c #423E11",
"z  c #3D4000",
"x  c #4D4306",
"c  c #4E4B00",
"v  c #544500",
"b  c #5E4505",
"n  c #584D00",
"m  c #5E4C0C",
"M  c #59431E",
"N  c #584A19",
"B  c #634700",
"V  c #644E05",
"C  c #644D0A",
"Z  c #675C00",
"A  c #635305",
"S  c #725C01",
"D  c #675517",
"F  c #7A5F10",
"G  c #6A6201",
"H  c #786806",
"J  c #77630D",
"K  c #7C7201",
"L  c #7B7902",
"P  c #796810",
"I  c #827303",
"U  c #8B7300",
"Y  c #857B00",
"T  c #837508",
"R  c #8A770C",
"E  c #907600",
"W  c #836B13",
"Q  c #838400",
"!  c #888001",
"~  c #8C880B",
"^  c #938600",
"/  c #968E00",
"(  c #9C8A01",
")  c #9A8C0F",
"_  c #93850B",
"`  c #9C9401",
"'  c #9A920D",
"]  c #A88F00",
"[  c #A78F0B",
"{  c #A89306",
"}  c #A2960C",
"|  c #B89503",
" . c #B59C02",
".. c #AD9A17",
"X. c #A89419",
"o. c #A79A1A",
"O. c #9FAE00",
"+. c #B1A300",
"@. c #BDAE00",
"#. c #B5A20B",
"$. c #B9A109",
"%. c #B8A80D",
"&. c #BBB101",
"*. c #BABF00",
"=. c #B7A423",
"-. c #C39A04",
";. c #C2A70E",
":. c #C4AC0A",
">. c #C4B602",
",. c #CCB600",
"<. c #C2B901",
"1. c #CEBE09",
"2. c #D4B704",
"3. c #DABD09",
"4. c #D3BC0E",
"5. c #CEB118",
"6. c #C8BC18",
"7. c #DFC405",
"8. c #D6C00B",
"9. c #DAC709",
"0. c #D4D300",
"q. c #DDDB09",
"w. c #C5C412",
"e. c #DACC13",
"r. c #DFD913",
"t. c #E6CB02",
"y. c #EDCF00",
"u. c #E3CB0D",
"i. c #ECCE0A",
"p. c #E0D100",
"a. c #ECD200",
"s. c #E7DE00",
"d. c #EDDC00",
"f. c #EDDD0B",
"g. c #F1D300",
"h. c #FCD602",
"j. c #F5DC02",
"k. c #FCDD01",
"l. c #F3D70B",
"z. c #FED70A",
"x. c #F6DD0B",
"c. c #FDDD0B",
"v. c #E0C713",
"b. c #E7D310",
"n. c #F4DC14",
"m. c #FFDC13",
"M. c #FED71A",
"N. c #F5DF18",
"B. c #FDDD1A",
"V. c #EDE300",
"C. c #EAED00",
"Z. c #EFE00C",
"A. c #ECEE0E",
"S. c #F5E300",
"D. c #FFE204",
"F. c #FFE107",
"G. c #FFE207",
"H. c #FFE004",
"J. c #FFE404",
"K. c #FFE406",
"L. c #FCE605",
"P. c #FEE101",
"I. c #F6E902",
"U. c #FAEA00",
"Y. c #FFEB01",
"T. c #FFED00",
"R. c #FEEA06",
"E. c #FEEA02",
"W. c #F3E20C",
"Q. c #F5E70C",
"!. c #F4E209",
"~. c #FEE109",
"^. c #FFE609",
"/. c #FEE50A",
"(. c #FEE20E",
"). c #FFE50C",
"_. c #FFE60E",
"`. c #FDE30B",
"'. c #F7EB0B",
"]. c #F7E90C",
"[. c #F7E809",
"{. c #FAE808",
"}. c #FFE80D",
"|. c #FFE90D",
" X c #F4E311",
".X c #FEE111",
"XX c #FFE713",
"oX c #FFE116",
"OX c #FDE313",
"+X c #FCEB12",
"@X c #FFE11C",
"#X c #FCE51B",
"$X c #FDEB19",
"%X c #D0C126",
/* pixels */
"P.P.P.P.P.P.P.P.P.P.P.P.P.P.P.P.P.P.P.P.P.P.P.P.P.P.P.P.P.P.P.P.P.P.P.P.P.P.P.P.P.P.P.P.P.P.P.P.P.P.P.P.P.P.P.P.P.P.P.P.P.P.P.P.P.",
"P.P.P.P.P.P.P.P.P.P.P.P.P.P.P.P.P.P.P.P.P.P.P.P.P.P.P.P.P.P.P.P.P.P.P.P.P.P.P.P.P.P.P.P.P.P.P.P.P.P.P.P.P.P.P.P.P.P.P.P.P.P.P.P.P.",
"P.P.P.P.P.P.P.P.P.P.P.P.P.P.P.P.P.P.P.P.P.P.P.P.P.P.P.P.P.P.P.P.P.P.P.P.P.P.P.P.P.P.P.P.P.P.P.P.P.P.P.P.P.P.P.P.P.P.P.P.P.P.P.P.P.",
"P.P.P.P.P.P.P.P.P.P.P.P.P.P.P.P.P.P.P.P.P.P.P.P.P.P.P.P.P.P.P.P.P.P.P.P.P.P.P.P.P.P.P.P.P.P.P.P.P.P.P.P.P.P.P.P.P.P.P.P.P.P.P.P.P.",
"P.P.P.P.P.P.P.P.P.P.P.P.P.P.P.P.P.P.P.P.P.P.P.P.P.P.P.P.P.P.P.P.P.P.P.P.P.P.P.P.P.P.P.P.P.P.P.P.P.P.P.P.P.P.P.P.P.P.P.P.P.P.P.P.P.",
"P.P.P.P.P.P.P.P.P.P.P.P.P.P.P.P.P.P.P.P.P.P.P.P.P.P.P.P.P.P.P.P.P.P.P.P.P.P.P.P.P.P.P.P.P.P.P.P.P.P.P.P.P.P.P.P.P.P.P.P.P.P.P.P.P.",
"P.P.P.P.P.P.P.P.P.P.P.P.P.P.P.P.P.P.P.P.P.P.P.P.P.P.P.P.P.P.P.P.P.P.P.P.P.P.P.P.P.P.P.P.P.P.P.P.P.P.P.P.P.P.P.P.P.P.P.P.P.P.P.P.P.",
"P.P.P.P.P.P.P.P.P.P.P.P.P.P.P.P.P.P.P.P.P.P.P.P.P.P.P.P.P.P.P.P.P.P.P.P.P.P.P.P.P.P.P.P.P.P.P.P.P.P.P.P.P.P.P.P.P.P.P.P.P.P.P.P.P.",
"P.P.P.P.P.P.P.P.P.P.P.P.P.P.P.P.P.P.P.P.P.P.P.P.k._.~.S.P.~.z.~.j.S.Y.Y.S.H.H.j.P.P.k.P.P.P.P.P.P.P.P.P.P.P.P.P.P.P.P.P.P.P.P.P.P.",
"P.P.P.P.P.P.P.P.P.P.P.P.P.P.P.P.P.P.P.P.P.P.P.P.L.S.S./.K.P.P.H._.k.j.H.OXx.L.T.P.P.P.P.H.P.P.P.P.P.P.P.P.P.P.P.P.P.P.P.P.P.P.P.P.",
"P.P.P.P.P.P.P.P.P.P.P.P.P.P.P.P.P.P.P.P.P.P.P.P.H.H.P.k.j.F.R.S.S.c.OX(.Y.P.~.@XP.P.P.P.P.P.P.P.P.P.P.P.P.P.P.P.P.P.P.P.P.P.P.P.P.",
"P.P.P.P.P.P.P.P.P.P.P.P.P.P.P.P.P.P.P.P.P.P.P.P.k.k.k.H.P.P.P.`.S.Y.P.k.P.Y.P.k.P.P.P.P.P.P.P.P.P.P.P.P.P.P.P.P.P.P.P.P.P.P.P.P.P.",
"P.P.P.P.P.P.P.P.P.P.P.P.P.P.P.P.P.P.P.P.P.P.P.P.[.XX~.k.c.m.z.P.K.H.H.~.K.S.S.|.P.P.P.P.P.P.P.P.P.P.P.P.P.P.P.P.P.P.P.P.P.P.P.P.P.",
"P.P.P.P.P.P.P.P.P.P.P.P.P.P.P.P.P.P.P.P.P.P.P.P.k.P.L.S.s.<.( I K Y ` >.f.R.P.P.H.H.P.P.P.P.P.P.P.P.P.P.P.P.P.P.P.P.P.P.P.P.P.P.P.",
"P.P.P.P.P.P.P.P.P.P.P.P.P.P.P.P.P.P.P.P.P.P.P.P.m.k.>.m .   o O O @ O O = b  .Y.j.k.H.P.P.P.P.P.P.P.P.P.P.P.P.P.P.P.P.P.P.P.P.P.P.",
"P.P.P.P.P.P.P.P.P.P.P.P.P.P.P.P.P.P.P.P.P.P.P.P.q.n + 3 O       +     X O O % h g.j.H.P.k.k.P.P.P.P.P.P.P.P.P.P.P.P.P.P.P.P.P.P.P.",
"P.P.P.P.P.P.P.P.P.P.P.P.P.P.P.P.c.j.'.h.c./.k.q.i + @ X O     @ +   < O   ,   + 9 8.c.k.K.Y.c.H.P.P.P.P.P.P.P.P.P.P.P.P.P.P.P.P.P.",
"P.P.P.P.P.P.P.P.P.P.P.P.P.P.P.P.P.Y.V._.k.U.m.v X , X . C  .7.d.j.c.4...x   O O   p f.N.S.Y.oXP.P.P.P.P.P.P.P.P.P.P.P.P.P.P.P.P.P.",
"P.P.P.P.P.P.P.P.P.P.P.P.P.P.P.P.P.Y.S.H.k.U.#.< X   5 &./.j.k./.H.k.c.S.S.X.& O 1   ~ S.j.K.OXP.P.P.P.P.P.P.P.P.P.P.P.P.P.P.P.P.P.",
"P.P.P.P.P.P.P.P.P.P.P.P.P.P.P.P.P.(.Y.h.~.Q.n 2   . o.Z./.|./.d.U.S.'.k./.j.^ .   o q S.z.h.j.Y.P.P.P.P.P.P.P.P.P.P.P.P.P.P.P.P.P.",
"P.P.P.P.P.P.P.P.P.P.P.P.P.P.P.P.P.oXP.c.c.W.0 X 3 > C.S.P.Y.S.{.(./.S.Y.z.L.A.t   O , 1.P.c.K.R.P.P.P.P.P.P.P.P.P.P.P.P.P.P.P.P.P.",
"P.P.P.P.P.P.P.P.P.P.P.P.P.P.P.P.Y.P.k.OXP.S.+ O   d V.Y.P.c.OXY.k.P.oXk.OXB. XT O O O / S.c.j.k.P.P.P.P.P.P.P.P.P.P.P.P.P.P.P.P.P.",
"P.P.P.P.P.P.P.P.P.P.P.P.P.P.P.P.H.P.k.x.P.S.. 4   e S.c.k.m.oXS.Y.~.k.k.c.P.Y.-.c G P <.I.K.k._.P.P.P.P.P.P.P.P.P.P.P.P.P.P.P.P.P.",
"P.P.P.P.P.P.P.P.P.P.P.P.P.P.P.P.c.Y.c.S.c.(.u . X + ( S.~.P.P.m.Y.k./.OXS.S.`.c.(.k.k.L.I.P.Y.S.P.P.P.P.P.P.P.P.P.P.P.P.P.P.P.P.P.",
"P.P.P.P.P.P.P.P.P.P.P.P.P.P.P.P.H.S.L.H.k.W.K + X , $ E j.P.OXS.XX~.c.P.H.P.P.P.!.S.k.P. XU.j.m.P.P.P.P.P.P.P.P.P.P.P.P.P.P.P.P.P.",
"P.P.P.P.P.P.P.P.P.P.P.P.P.P.P.P.P.m.S.Y.M.R.r.6 . O O O ; V | h.P.P.Y.Y.k.S.F.j.~.S.c.c.k.c.$XS.P.P.P.P.P.P.P.P.P.P.P.P.P.P.P.P.P.",
"P.P.P.P.P.P.P.P.P.P.P.P.P.P.P.P.P.#Xj.j.OXj.[.%..   O O O     , a H +.p.R.P.j._.c.k.L.F.H.P.k.OXP.P.P.P.P.P.P.P.P.P.P.P.P.P.P.P.P.",
"P.P.P.P.P.P.P.P.P.P.P.P.P.P.P.P.P.H.OXk.P.K.x.R.*.y O X O j   O   O O X p R 3.k.k.~.Y.Y.h.P.k.N.P.P.P.P.P.P.P.P.P.P.P.P.P.P.P.P.P.",
"P.P.P.P.P.P.P.P.P.P.P.P.P.P.P.P.S.F.S.R.j.K.P.j.c.d.Y 8     <   O @     #   o l %X$Xk.k.H.S.~.P.P.P.P.P.P.P.P.P.P.P.P.P.P.P.P.P.P.",
"P.P.P.P.P.P.P.P.P.P.P.P.P.P.P.P.Y.`.S.L.c.j.k.oX~.j.H.B.5.J t X O O O       @ O . I OXK.k.Y.Y.k.P.P.P.P.P.P.P.P.P.P.P.P.P.P.P.P.P.",
"P.P.P.P.P.P.P.P.P.P.P.P.P.P.P.P.Y.j._.P.S._.OXj.L.|.x.k.k.Y.XXv.] S 8 O O o . * 4 . K '.L.k.H.H.P.P.P.P.P.P.P.P.P.P.P.P.P.P.P.P.P.",
"P.P.P.P.P.P.P.P.P.P.P.P.P.P.P.P.c.Y.k.m.~.j.S.K.k.P.Y.Y.H.H.P.P.(.k.P.u.R y X X O 1 . =.K.k.c.j.P.P.P.P.P.P.P.P.P.P.P.P.P.P.P.P.P.",
"P.P.P.P.P.P.P.P.P.P.P.P.P.P.P.P.k.K.Y.k.(.k.k.H.z.S.L.c.k.R.(.c.k.m.k.P.c.j.} = O X   s P.H.m.Y.P.P.P.P.P.P.P.P.P.P.P.P.P.P.P.P.P.",
"P.P.P.P.P.P.P.P.P.P.P.P.P.P.P.P./.l.S.P.L.Z.+XS.x.S.L.P.P.S.R.Y.L.[.S.P.k.Y.S.@..     O t.P.c.Y.P.P.P.P.P.P.P.P.P.P.P.P.P.P.P.P.P.",
"P.P.P.P.P.P.P.P.P.P.P.P.P.P.P.P.Y.!.Y.(.b.N f w S !.k.j.Y.OX_.j.L.S.Y.~.x.c.Y.P.x   X , ;.L.P.c.P.P.P.P.P.P.P.P.P.P.P.P.P.P.P.P.P.",
"P.P.P.P.P.P.P.P.P.P.P.P.P.P.P.P.S.R.S.h.d.  X , y S.k.c.S.x.Y._.k.k.k.P.L.L.k.P.Q     @ [ U.Y.c.P.P.P.P.P.P.P.P.P.P.P.P.P.P.P.P.P.",
"P.P.P.P.P.P.P.P.P.P.P.P.P.P.P.P.k.L.c.z.OXr - O o >.m.c.T.K.k.c.k.k.c.P.L.L.k.k.L +   @ $.L.P.P.P.P.P.P.P.P.P.P.P.P.P.P.P.P.P.P.P.",
"P.P.P.P.P.P.P.P.P.P.P.P.P.P.P.P.Y.`.k.z.c.G       D n.Y.S.~.~.H.S.L.Y.~.x.c.P.j.g < X O u.F.P.P.P.P.P.P.P.P.P.P.P.P.P.P.P.P.P.P.P.",
"P.P.P.P.P.P.P.P.P.P.P.P.P.P.P.P.k.j.L.P.~.@.* , ,   ' S.Y.j.|.j.L.L.S.P.k.Y.d.+.O O O z (.k.P.S.P.P.P.P.P.P.P.P.P.P.P.P.P.P.P.P.P.",
"P.P.P.P.P.P.P.P.P.P.P.P.P.P.P.P.~.j. XL.k.Y.M X   @ + S i.].j.oXk.oXS.P.k.l.)   X   + O.c.h./.j.P.P.P.P.P.P.P.P.P.P.P.P.P.P.P.P.P.",
"P.P.P.P.P.P.P.P.P.P.P.P.P.P.P.P.P.j.S.H.m.Y.e.7     X O o v { 2.y.a.t.:.W i .   X + B `.P.x.Y.j.P.P.P.P.P.P.P.P.P.P.P.P.P.P.P.P.P.",
"P.P.P.P.P.P.P.P.P.P.P.P.P.P.P.P.(.OXS.k.m.P.U.6.:     #       O , , O O     X X + k  Xk.~.k.XX(.P.P.P.P.P.P.P.P.P.P.P.P.P.P.P.P.P.",
"P.P.P.P.P.P.P.P.P.P.P.P.P.P.P.P.k.~.Y.S.OXc.S.T.0.A +   X , , -             O , F #Xk.k.Y.(.j.~.P.P.P.P.P.P.P.P.P.P.P.P.P.P.P.P.P.",
"P.P.P.P.P.P.P.P.P.P.P.P.P.P.P.P.P.k.K.L.k.XXz.x.c.j.>.Z ;   . . O X   2 < & G w.`.k.~.m.S.Y.OXP.P.P.P.P.P.P.P.P.P.P.P.P.P.P.P.P.P.",
"P.P.P.P.P.P.P.P.P.P.P.P.P.P.P.P.(.k.j.|.S.P.(.oXc.P.Y._.x.9.#._ U U U ( ,.j.Y.P./.k.P._.F.Y.k.H.P.P.P.P.P.P.P.P.P.P.P.P.P.P.P.P.P.",
"P.P.P.P.P.P.P.P.P.P.P.P.P.P.P.P.k.Y.j._.[.S.k.P.T.Y.j.k.P.Y.S.j.(.c.H.K.R.S.j.`.OXF.`.j.S.c.Y.c.P.P.P.P.P.P.P.P.P.P.P.P.P.P.P.P.P.",
"P.P.P.P.P.P.P.P.P.P.P.P.P.P.P.P.S.Y.S.k.`./.Y.Y.k.K.U.S.S.~.(.~.S.S.j.j.c.H.P.P.j.B.`./.~.k._.P.P.P.P.P.P.P.P.P.P.P.P.P.P.P.P.P.P.",
"P.P.P.P.P.P.P.P.P.P.P.P.P.P.P.P.H.z.c.P.k.S.Y.P.L.~.c.k.P.P.S.F.P.Y.P.P.P.P.S.S.H.k.k.S.k.(.S.Y.P.P.P.P.P.P.P.P.P.P.P.P.P.P.P.P.P.",
"P.P.P.P.P.P.P.P.P.P.P.P.P.P.P.P.P.P.P.P.P.P.P.P.P.P.P.P.P.P.P.P.P.P.P.P.P.P.P.P.P.P.P.P.P.P.P.P.P.P.P.P.P.P.P.P.P.P.P.P.P.P.P.P.P.",
"P.P.P.P.P.P.P.P.P.P.P.P.P.P.P.P.P.P.P.P.P.P.P.P.P.P.P.P.P.P.P.P.P.P.P.P.P.P.P.P.P.P.P.P.P.P.P.P.P.P.P.P.P.P.P.P.P.P.P.P.P.P.P.P.P.",
"P.P.P.P.P.P.P.P.P.P.P.P.P.P.P.P.P.P.P.P.P.P.P.P.P.P.P.P.P.P.P.P.P.P.P.P.P.P.P.P.P.P.P.P.P.P.P.P.P.P.P.P.P.P.P.P.P.P.P.P.P.P.P.P.P.",
"P.P.P.P.P.P.P.P.P.P.P.P.P.P.P.P.P.P.P.P.P.P.P.P.P.P.P.P.P.P.P.P.P.P.P.P.P.P.P.P.P.P.P.P.P.P.P.P.P.P.P.P.P.P.P.P.P.P.P.P.P.P.P.P.P.",
"P.P.P.P.P.P.P.P.P.P.P.P.P.P.P.P.P.P.P.P.P.P.P.P.P.P.P.P.P.P.P.P.P.P.P.P.P.P.P.P.P.P.P.P.P.P.P.P.P.P.P.P.P.P.P.P.P.P.P.P.P.P.P.P.P.",
"P.P.P.P.P.P.P.P.P.P.P.P.P.P.P.P.P.P.P.P.P.P.P.P.P.P.P.P.P.P.P.P.P.P.P.P.P.P.P.P.P.P.P.P.P.P.P.P.P.P.P.P.P.P.P.P.P.P.P.P.P.P.P.P.P.",
"P.P.P.P.P.P.P.P.P.P.P.P.P.P.P.P.P.P.P.P.P.P.P.P.P.P.P.P.P.P.P.P.P.P.P.P.P.P.P.P.P.P.P.P.P.P.P.P.P.P.P.P.P.P.P.P.P.P.P.P.P.P.P.P.P.",
"P.P.P.P.P.P.P.P.P.P.P.P.P.P.P.P.P.P.P.P.P.P.P.P.P.P.P.P.P.P.P.P.P.P.P.P.P.P.P.P.P.P.P.P.P.P.P.P.P.P.P.P.P.P.P.P.P.P.P.P.P.P.P.P.P.",
"P.P.P.P.P.P.P.P.P.P.P.P.P.P.P.P.P.P.P.P.P.P.P.P.P.P.P.P.P.P.P.P.P.P.P.P.P.P.P.P.P.P.P.P.P.P.P.P.P.P.P.P.P.P.P.P.P.P.P.P.P.P.P.P.P.",
"P.P.P.P.P.P.P.P.P.P.P.P.P.P.P.P.P.P.P.P.P.P.P.P.P.P.P.P.P.P.P.P.P.P.P.P.P.P.P.P.P.P.P.P.P.P.P.P.P.P.P.P.P.P.P.P.P.P.P.P.P.P.P.P.P.",
"P.P.P.P.P.P.P.P.P.P.P.P.P.P.P.P.P.P.P.P.P.P.P.P.P.P.P.P.P.P.P.P.P.P.P.P.P.P.P.P.P.P.P.P.P.P.P.P.P.P.P.P.P.P.P.P.P.P.P.P.P.P.P.P.P.",
"P.P.P.P.P.P.P.P.P.P.P.P.P.P.P.P.P.P.P.P.P.P.P.P.P.P.P.P.P.P.P.P.P.P.P.P.P.P.P.P.P.P.P.P.P.P.P.P.P.P.P.P.P.P.P.P.P.P.P.P.P.P.P.P.P.",
"P.P.P.P.P.P.P.P.P.P.P.P.P.P.P.P.P.P.P.P.P.P.P.P.P.P.P.P.P.P.P.P.P.P.P.P.P.P.P.P.P.P.P.P.P.P.P.P.P.P.P.P.P.P.P.P.P.P.P.P.P.P.P.P.P.",
"P.P.P.P.P.P.P.P.P.P.P.P.P.P.P.P.P.P.P.P.P.P.P.P.P.P.P.P.P.P.P.P.P.P.P.P.P.P.P.P.P.P.P.P.P.P.P.P.P.P.P.P.P.P.P.P.P.P.P.P.P.P.P.P.P.",
"P.P.P.P.P.P.P.P.P.P.P.P.P.P.P.P.P.P.P.P.P.P.P.P.P.P.P.P.P.P.P.P.P.P.P.P.P.P.P.P.P.P.P.P.P.P.P.P.P.P.P.P.P.P.P.P.P.P.P.P.P.P.P.P.P.",
"P.P.P.P.P.P.P.P.P.P.P.P.P.P.P.P.P.P.P.P.P.P.P.P.P.P.P.P.P.P.P.P.P.P.P.P.P.P.P.P.P.P.P.P.P.P.P.P.P.P.P.P.P.P.P.P.P.P.P.P.P.P.P.P.P.",
"P.P.P.P.P.P.P.P.P.P.P.P.P.P.P.P.P.P.P.P.P.P.P.P.P.P.P.P.P.P.P.P.P.P.P.P.P.P.P.P.P.P.P.P.P.P.P.P.P.P.P.P.P.P.P.P.P.P.P.P.P.P.P.P.P."
};
