/* XPM */
static char *_dcfed0e6f754642c14ba898882aac7c0SwDs81YzYIhl8nh[] = {
/* columns rows colors chars-per-pixel */
"65 65 169 2 ",
"   c #020203",
".  c #090302",
"X  c #020B02",
"o  c #080902",
"O  c #02020A",
"+  c #09020C",
"@  c #010B0A",
"#  c #130502",
"$  c #12010B",
"%  c #041201",
"&  c #081000",
"*  c #031B01",
"=  c #0B1B02",
"-  c #101302",
";  c #141D04",
":  c #020113",
">  c #0A0115",
",  c #06001B",
"<  c #052000",
"1  c #0D2403",
"2  c #0C2900",
"3  c #132402",
"4  c #132D03",
"5  c #152B0A",
"6  c #153302",
"7  c #1B3402",
"8  c #153E00",
"9  c #1C3C01",
"0  c #243C02",
"q  c #22370E",
"w  c #283308",
"e  c #243E0C",
"r  c #223E15",
"t  c #1C4202",
"y  c #1F4D00",
"u  c #224400",
"i  c #294302",
"p  c #244C02",
"a  c #2B4C04",
"s  c #274309",
"d  c #2D470A",
"f  c #2E4B08",
"g  c #275203",
"h  c #2A5103",
"j  c #2C5A03",
"k  c #325400",
"l  c #345D05",
"z  c #3B5F04",
"x  c #31520B",
"c  c #345C15",
"v  c #346400",
"b  c #3B6301",
"n  c #3D6A03",
"m  c #3B640C",
"M  c #3B7104",
"N  c #436D0C",
"B  c #417302",
"V  c #4A7500",
"C  c #457D04",
"Z  c #4A7B04",
"A  c #437308",
"S  c #4B730C",
"D  c #447A09",
"F  c #4C7E0A",
"G  c #527A0A",
"H  c #456912",
"J  c #4C6F13",
"K  c #4C7612",
"L  c #4E7B11",
"P  c #49751C",
"I  c #468601",
"U  c #4B8502",
"Y  c #468C01",
"T  c #4D8E00",
"R  c #49840C",
"E  c #46890A",
"W  c #4C8C0A",
"Q  c #518402",
"!  c #528D02",
"~  c #598C02",
"^  c #53850A",
"/  c #528C0B",
"(  c #598B08",
")  c #469202",
"_  c #4E9201",
"`  c #4D9003",
"'  c #4C9103",
"]  c #4E9103",
"[  c #4F9302",
"{  c #4D9100",
"}  c #4F9400",
"|  c #4C9600",
" . c #4F9600",
".. c #4A9105",
"X. c #4D9204",
"o. c #4E9304",
"O. c #4D9106",
"+. c #4E9606",
"@. c #4C9101",
"#. c #45910A",
"$. c #4F9109",
"%. c #4D940A",
"&. c #4D900D",
"*. c #4F900E",
"=. c #4F920E",
"-. c #4D910B",
";. c #519000",
":. c #519001",
">. c #509200",
",. c #519200",
"<. c #519300",
"1. c #529200",
"2. c #529301",
"3. c #509103",
"4. c #519202",
"5. c #549000",
"6. c #549300",
"7. c #529400",
"8. c #559500",
"9. c #569401",
"0. c #559700",
"q. c #569700",
"w. c #569403",
"e. c #519004",
"r. c #529105",
"t. c #519107",
"y. c #509306",
"u. c #539307",
"i. c #539406",
"p. c #529101",
"a. c #5A9200",
"s. c #549803",
"d. c #589806",
"f. c #539108",
"g. c #539309",
"h. c #51900B",
"j. c #52960B",
"k. c #56940B",
"l. c #51900D",
"z. c #53910C",
"x. c #50920C",
"c. c #50920E",
"v. c #54970C",
"b. c #52920B",
"n. c #59910C",
"m. c #58950C",
"M. c #5C910D",
"N. c #4B8610",
"B. c #4C8311",
"V. c #498B10",
"C. c #488D10",
"Z. c #4C8C11",
"A. c #4D8E10",
"S. c #4E8B14",
"D. c #4B8C11",
"F. c #4E8A18",
"G. c #538314",
"H. c #518E15",
"J. c #538B12",
"K. c #538919",
"L. c #518B1B",
"P. c #528B1A",
"I. c #508A1C",
"U. c #5E8A19",
"Y. c #4F9116",
"T. c #509111",
"R. c #5A9612",
"E. c #589013",
"W. c #518725",
/* pixels */
"T T T T T T T T T T T T T T T T T T T T T T T T T T T T T T T T T T T T T T T T T T T T T T T T T T T T T T T T T T T T T T T T T ",
"T T T T T T T T T T T T T T T T T T T T T T T T T T T T T T T T T T T T T T T T T T T T T T T T T T T T T T T T T T T T T T T T T ",
"T T T T T T T T T T T T T T T T T T T T T T T T T T T T T T T T T T T T T T T T T T T T T T T T T T T T T T T T T T T T T T T T T ",
"T T T T T T T T T T T T T T T T T T T T T T T T T T T T T T T T T T T T T T T T T T T T T T T T T T T T T T T T T T T T T T T T T ",
"T T T T T T T T T T T T T T T T T T T T T T T T T T T T T T T T T T T T T T T T T T T T T T T T T T T T T T T T T T T T T T T T T ",
"T T T T T T T T T T T T T T T T T T T T T T T T T T T T T T T T T T T T T T T T T T T T T T T T T T T T T T T T T T T T T T T T T ",
"T T T T T T T T T T T T T T T T T T T T T T T T T T T T T T T T T T T T T T T T T T T T T T T T T T T T T T T T T T T T T T T T T ",
"T T T T T T T T T T T T T T T T T T T T T T T T T T T T T T T T T T T T T T T T T T T T T T T T T T T T T T T T T T T T T T T T T ",
"T T T T T T T T { { @.@.V.W T ! T T T T W E $.U T 3.Y T E Y.@.3.Y %.Y 3.U U / ! W 3.U H.T { T O.T W Y @.O.W / ! T T T T T T T T T ",
"T T T T T T T T T E T Y W T T T Z.W ! T T { T 5.W g.T T W P.W W.T T U T T W T ! T 3.U W T 3.W T T T Y T T T T ! T T T T T T T T T ",
"T T T T T T T T ! U 8.T r.r.T U { Y U T 3.g.E W Y T l.3.! T 3.3./ / l.W W r.T U T { T U T =.U T W ! / / U T Y { T T T T T T T T T ",
"T T T T T T T T W W / U W U $.Y @.O.T T T T T v.l.T U U ! r.r.W g.I U U T T T k.T T { @.T =.U { @.T T T ! d.{ T T T T T T T T T T ",
"T T T T T T T T I { T T i.U 3.T U T I Y i.3.{ Y T T r./ { { I Y T T l.O.{ 3.T W T U { @.T T { { Y W l.U T T T U T T T T T T T T T ",
"T T T T T T T T W j.I Y 7.! Q ~ U.J...Y Y U =.I T T { E T s.I m.~ n.U T T 3./ E g.T { @.U T 8.D ! / / 8.8.T W / T T T T T T T T T ",
"T T T T T T T T U @.T W N.c X O X 6 F.+.{ T 3.{ / U T T T F *   O : % P R.W I | W T T W W ! / p O : X j U / W T T T T T T T T T T ",
"T T T T T T T T P.U T T 5.J   + , = P.Y T / W U W T | Y I S   O . >   b U W C.Y U { T Z.S.! ^ * . > X L 8.W E | T T T T T T T T T ",
"T T T T T T T T @.V.3.! T W * .   O Z Y ..! ! @.T T T ) T d +   O   : q ! Y =.T T =.T U @.) U O   o = g.Y ! / Y T T T T T T T T T ",
"T T T T T T T T T E 3.! T Y 6 .   O b T Y ! ! @.{ W T ..! 3 . O X   O = ! T T T T O.T T @.Y n O O   e T ) W / Y T T T T T T T T T ",
"T T T T T T T T T W T ! T { l O   O 0 { Y ! ! @.@./ T O.^   . O 0 O     Z T T T { T T T @.T t O O   H T @.W T { T T T T T T T T T ",
"T T T T T T T T T W Y ! T { Z O   O = 3.T W ! @.@./ T T m O . O K   o   h T { T T T 3.T @.T =   O X ^ T T W T { T T T T T T T T T ",
"T T T T T T T T T O.W ! T @.! =   O X U T T ! ) T T W 5.7 O   = n.* +   1 ! { U T T ! Y { F X   O 1 3.T T W T { T T T T T T T T T ",
"T T T T T T T T T @.W ! T T 3.9   + O n T T ! T { U / ! % O   p U u +   X ^ T { T T / Y { m O O   h T T T T T T T T T T T T T T T ",
"T T T T T T T T T @.Y T ! T T n   +   a T T 3.Y Y T T A   .   B Y N   O O m T { T / W @.T e   O . B Y T ! ! T { T T T T T T T T T ",
"T T T T T T T T ! @.Y T ! W W U   +   6 T { T W T / U j   + X T ) G.  +   t T @.@./ W | T 3   O . ! #.U ! { Y 3.T T T T T T T T T ",
"T T T T T T T T T T T T T T T T 2 O . . U Y ) ! T ( | ;   . 5 3.@.W 6   O = ~ I T T { &.T O .   8 B.5.U Y T r.U T T T T T T T T T ",
"T T T T T T T T T T T T T T T T p O . . C O.) ! Y / U o   . x T ) W f     X Z Y @.U T Y B O O   j J.3.T W T { W T T T T T T T T T ",
"T T T T T T T T T T T T T T T T n   .   l { Y W Y U n O   . C T Y ! S     O k ! { U T T h O O   D / T T W Y T T T T T T T T T T T ",
"T T T T T T T T T T T T T T T T U X . O 9 T T / Y T 0 O o & T T T T ^ * O O 6 ! { U T 3.6 . . = T T Y T Y Y T T T T T T T T T T T ",
"T T T T T T T T T T T T T T T T T 4 O O = T { { T T - o O 0 T Y T { W 9 O   % Q { T T ! % .   e { T T T T U T T T T T T T T T T T ",
"T T T T T T T T T T T T T T T T T g O O X U r.T T C .   O n U Y T @.Y b O .   N T T T A   .   m T T T T T T T T T T T T T T T T T ",
"T T T T T T T T T T T T T T T T T B O     v / Y { x O   o U / ) T T T Z X .   a T T T g O + X U T T W T T T W T T T T T T T T T T ",
"T T T T T T T T T T T T T T T T Y ! +   . y J.@.3.5 .   ; | ( @.! I ) ^ ; +   1 W { T 6 O + = 3.T W W T T T U T T T T T T T T T T ",
"T T T T T T T T T T T T T T T T E ! 4 X O 3 ( Y U @ +   g T / T T { @.W u   O + U ! Y # o : f T T T T T T T T T T T T T T T T T T ",
"T T T T T T T T T T T T T T T T T ! a   O % ^ Y B O .   M T T T T T @./ b     . M U C +   O N T T T T T T T T T T T T T T T T T T ",
"T T T T T T T T T T T T T T T T @.T V     O A T p   . X ! W T T ! T Y W Q @   . p E l O X X ( { T T T T T T T T T T T T T T T T T ",
"T T T T T T T T T T T T T T T T @.U ! % O O l Y 1   O 4 3.W ! T ! T Y T a.4 O + 6 W 7 + O 3 5.{ T T T T T T T T T T T T T T T T T ",
"T T T T T T T T T T T T T T T T T Y ! 9 O   0 U @   O l { U l.T T T Y { ! k :   = H.% o O k T T T T T T T T T T T T T T T T T T T ",
"T T T T T T T T T T T T T T T T W Y T l O   3 B O     F O.T / T T T T | E Z O   X K     O Z ! Y T T T T T T T T T T T T T T T T T ",
"T T T T T T T T T T T T T T T T W @.Y F X . o i O   = ! ..T W T T T r.{ U Q = O   s     ; $.! Y T T T T T T T T T T T T T T T T T ",
"T T T T T T T T T T T T T T T T / @.) J.= . O =   O 0 U ) $.T T { T { T Y / 7 : O %   O w ) ~ Y T T T T T T T T T T T T T T T T T ",
"T T T T T T T T T T T T T T T T ( T ..W u O O   $   B U W 5.W { T W ! ! T.U z O       : v I./ T T T T T T T T T T T T T T T T T T ",
"T T T T T T T T T T T T T T T T T T Y { z   O   . % U 7.Z.! N.U T / ! U W T L X o . . O Z W g.! T T T T T T T T T T T T T T T T T ",
"T T T T T T T T T T T T T T T T U W Y { G o O . O 5 U { W ! J.U T W 3.U W T J.<   O . = ~ { T E T T T T T T T T T T T T T T T T T ",
"T T T T T T T T T T T T T T T T T @...3.G.1 X   X t T 7.T I / 3.T T T T $.T / p   @ X r U { T g.T T T T T T T T T T T T T T T T T ",
"T T T T T T T T T T T T T T T T W Y T { 8.U ~ M.J.J.T I T r.H.E { T U T Y { T B.! ! Z E.3.r.U T T T T T T T T T T T T T T T T T T ",
"T T T T T T T T T T T T T T T T r.T O.$.Y O.{ U T 3.W W { T W T U r.{ U Y i.U v.{ @.T l.E W g.3.T T T T T T T T T T T T T T T T T ",
"T T T T T T T T T T T T T T T T O.{ W W Y { | T =.{ W W { { T 3.U O.{ T T T U T T Y O.{ T T T U T T T T T T T T T T T T T T T T T ",
"T T T T T T T T T T T T T T T T @.O.R 3.3.U T W W { T ! { W W 3.g.{ Y T r.U z.@.! U W U 3.8.U =.T T T T T T T T T T T T T T T T T ",
"T T T T T T T T T T T T T T T T T T T T T T T T T T T T T T T T T T T T T T T T T T T T T T T T T T T T T T T T T T T T T T T T T ",
"T T T T T T T T T T T T T T T T T T T T T T T T T T T T T T T T T T T T T T T T T T T T T T T T T T T T T T T T T T T T T T T T T ",
"T T T T T T T T T T T T T T T T T T T T T T T T T T T T T T T T T T T T T T T T T T T T T T T T T T T T T T T T T T T T T T T T T ",
"T T T T T T T T T T T T T T T T T T T T T T T T T T T T T T T T T T T T T T T T T T T T T T T T T T T T T T T T T T T T T T T T T ",
"T T T T T T T T T T T T T T T T T T T T T T T T T T T T T T T T T T T T T T T T T T T T T T T T T T T T T T T T T T T T T T T T T ",
"T T T T T T T T T T T T T T T T T T T T T T T T T T T T T T T T T T T T T T T T T T T T T T T T T T T T T T T T T T T T T T T T T ",
"T T T T T T T T T T T T T T T T T T T T T T T T T T T T T T T T T T T T T T T T T T T T T T T T T T T T T T T T T T T T T T T T T ",
"T T T T T T T T T T T T T T T T T T T T T T T T T T T T T T T T T T T T T T T T T T T T T T T T T T T T T T T T T T T T T T T T T ",
"T T T T T T T T T T T T T T T T T T T T T T T T T T T T T T T T T T T T T T T T T T T T T T T T T T T T T T T T T T T T T T T T T ",
"T T T T T T T T T T T T T T T T T T T T T T T T T T T T T T T T T T T T T T T T T T T T T T T T T T T T T T T T T T T T T T T T T ",
"T T T T T T T T T T T T T T T T T T T T T T T T T T T T T T T T T T T T T T T T T T T T T T T T T T T T T T T T T T T T T T T T T ",
"T T T T T T T T T T T T T T T T T T T T T T T T T T T T T T T T T T T T T T T T T T T T T T T T T T T T T T T T T T T T T T T T T ",
"T T T T T T T T T T T T T T T T T T T T T T T T T T T T T T T T T T T T T T T T T T T T T T T T T T T T T T T T T T T T T T T T T ",
"T T T T T T T T T T T T T T T T T T T T T T T T T T T T T T T T T T T T T T T T T T T T T T T T T T T T T T T T T T T T T T T T T ",
"T T T T T T T T T T T T T T T T T T T T T T T T T T T T T T T T T T T T T T T T T T T T T T T T T T T T T T T T T T T T T T T T T ",
"T T T T T T T T T T T T T T T T T T T T T T T T T T T T T T T T T T T T T T T T T T T T T T T T T T T T T T T T T T T T T T T T T ",
"T T T T T T T T T T T T T T T T T T T T T T T T T T T T T T T T T T T T T T T T T T T T T T T T T T T T T T T T T T T T T T T T T "
};
